<?xml version="1.0" standalone="no"?>
<!DOCTYPE svg PUBLIC "-//W3C//DTD SVG 20010904//EN"
 "http://www.w3.org/TR/2001/REC-SVG-20010904/DTD/svg10.dtd">
<svg version="1.0" xmlns="http://www.w3.org/2000/svg"
 width="500.000000pt" height="500.000000pt" viewBox="0 0 500.000000 500.000000"
 preserveAspectRatio="xMidYMid meet">
<metadata>
Created by potrace 1.14, written by Peter Selinger 2001-2017
</metadata>
<g transform="translate(0.000000,500.000000) scale(0.100000,-0.100000)"
fill="#000000" stroke="none">
<path d="M2440 4250 c-25 -4 -63 -11 -84 -14 -112 -18 -244 -60 -364 -117
l-104 -49 -89 46 -89 46 -48 -20 c-26 -11 -86 -39 -134 -62 l-88 -42 0 -183 0
-182 -46 -69 c-97 -144 -183 -355 -219 -534 -23 -112 -28 -379 -10 -480 7 -41
16 -91 19 -110 3 -20 19 -78 36 -130 89 -272 248 -507 468 -688 l52 -44 0
1206 c0 663 2 1206 5 1206 2 0 33 -15 67 -34 35 -18 131 -68 213 -111 214
-111 353 -183 408 -213 l47 -25 -1 -196 0 -196 -110 -52 -109 -52 0 -896 0
-895 160 0 160 0 0 875 c0 481 2 875 4 875 5 0 191 -97 306 -159 47 -25 109
-57 138 -70 l52 -24 0 -232 0 -232 -90 -41 -90 -41 0 -476 c0 -261 3 -475 8
-475 13 0 227 64 232 69 3 3 12 6 20 6 13 0 15 54 18 417 1 230 5 418 8 418 3
0 91 -44 194 -97 l189 -98 3 -195 3 -195 84 85 c157 160 283 367 349 575 18
55 34 109 36 120 2 11 9 52 17 90 14 77 18 322 6 427 -34 304 -189 619 -418
847 -218 218 -487 357 -809 416 -53 10 -349 13 -400 5z m385 -105 c107 -22
205 -49 277 -76 410 -157 726 -511 833 -933 31 -125 35 -151 40 -306 5 -168
-7 -267 -52 -419 -42 -148 -118 -300 -211 -426 l-37 -50 -5 100 -5 100 -80 42
c-44 24 -152 80 -240 126 l-160 84 -3 264 -2 265 -213 109 c-116 60 -251 130
-299 155 l-88 45 0 245 0 245 -78 37 c-90 43 -459 235 -485 253 -15 10 -4 18
85 53 111 44 230 77 318 87 30 4 57 8 59 10 5 6 313 -3 346 -10z m-1190 -2293
c-2 -2 -15 8 -29 24 -13 16 -33 40 -45 53 l-21 24 0 1006 c0 553 4 1011 8
1017 4 7 25 20 47 30 l40 19 3 -1084 c1 -596 0 -1086 -3 -1089z m-197 601 l-3
-348 -42 85 c-99 200 -138 370 -137 600 0 239 38 409 137 609 l42 85 3 -342
c1 -187 1 -497 0 -689z m1042 -153 l0 -840 -60 0 -60 0 0 815 0 815 40 17 c22
10 40 21 40 25 0 5 9 8 20 8 20 0 20 -7 20 -840z m600 -399 c0 -432 7 -388
-60 -407 -20 -5 -20 -1 -20 375 l0 381 38 19 c20 10 38 19 40 20 1 1 2 -174 2
-388z"/>
<path d="M1583 1161 c-37 -23 -47 -48 -48 -118 -1 -50 1 -53 25 -53 14 0 111
-1 215 -1 126 -1 196 -5 206 -13 25 -18 29 -54 9 -78 -18 -23 -21 -23 -282
-23 -144 -1 -275 3 -291 8 -56 18 -43 91 18 103 29 5 34 10 31 28 -3 11 -5 24
-5 27 -1 7 -63 3 -89 -6 -33 -11 -56 -56 -56 -108 1 -44 5 -54 33 -79 17 -15
44 -28 59 -29 15 0 154 -1 310 -1 210 0 286 3 297 12 12 10 21 10 46 0 26 -11
255 -17 382 -11 14 1 17 11 17 70 0 125 -27 154 -144 156 l-72 1 2 -71 c2 -78
-3 -108 -17 -100 -5 4 -9 73 -9 156 l0 149 -35 0 -35 0 0 -154 0 -154 -25 2
c-39 5 -52 22 -57 77 -4 34 -12 58 -26 72 -21 20 -32 21 -224 23 -112 1 -206
2 -210 3 -4 0 -7 13 -6 27 4 42 36 50 206 48 l152 -1 0 29 0 28 -172 0 c-153
0 -177 -2 -205 -19z m790 -184 c18 -12 30 -77 18 -93 -3 -5 -23 -10 -43 -10
l-38 -2 0 59 c0 55 2 59 23 59 13 0 31 -6 40 -13z"/>
<path d="M3144 1170 c-12 -5 -25 -13 -29 -19 -3 -6 -6 -65 -6 -130 -1 -128 11
-170 53 -192 18 -10 263 -16 415 -10 13 1 37 14 55 30 28 25 32 34 31 78 0 57
-23 97 -63 111 -38 12 -171 8 -206 -6 -39 -17 -53 -43 -57 -106 -2 -28 -8 -51
-15 -54 -12 -4 -15 20 -12 90 2 40 -26 78 -58 78 -15 0 -17 -9 -15 -80 3 -73
1 -80 -16 -80 -38 0 -47 31 -46 165 1 69 -1 128 -4 129 -4 2 -16 0 -27 -4z
m440 -199 c9 -8 16 -28 16 -47 0 -25 -5 -34 -22 -40 -36 -12 -167 -12 -171 0
-8 23 3 81 17 91 21 16 140 12 160 -4z"/>
<path d="M2623 1030 c-44 -26 -55 -46 -55 -94 0 -50 28 -100 63 -111 11 -4 98
-7 193 -7 164 -1 176 1 205 21 36 26 45 55 42 139 -1 36 -37 80 -53 64 -5 -5
-11 -39 -12 -76 -1 -36 -7 -71 -14 -78 -9 -9 -59 -12 -167 -13 -164 0 -175 3
-189 52 -9 29 30 66 62 60 21 -4 23 -1 20 27 -3 27 -7 31 -35 32 -18 1 -45 -7
-60 -16z"/>
<path d="M2805 796 c-23 -16 -16 -51 10 -51 29 0 44 13 38 35 -7 25 -27 32
-48 16z"/>
</g>
</svg>
